<?xml version="1.0" encoding="UTF-8"?>
<svg id="Layer_2" xmlns="http://www.w3.org/2000/svg" version="1.1" viewBox="0 0 1243.35 1243.35">
  <!-- Generator: Adobe Illustrator 30.3.0, SVG Export Plug-In . SVG Version: 2.1.3 Build 182)  -->
  <defs>
    <style>
      .st0 {
        stroke: #000;
        stroke-miterlimit: 10;
      }
    </style>
  </defs>
  <path class="st0" d="M1083.36,260.24c-1.46-2.73-4.89-8.27-11.55-12.61-7-4.57-13.81-5.36-16.91-5.53-18.97-1.51-37.95-3.02-56.92-4.54-12.7-6.42-29.99-13.52-51.29-17.84-14.18-2.88-27.01-3.89-37.8-4.02-10.88,2.39-27.02,7.28-43.72,18.2-28.3,18.52-41.33,43.35-53.28,66.1-8.7,16.57-19.88,42.27-25.91,76.14-21.11,14.05-47.15,34.31-72.96,62.65-30.74,33.75-50.38,67.14-62.73,92.44-29.36,30.09-59.3,62.16-89.53,96.29-34.26,38.68-65.96,76.7-95.25,113.65-110.83,62.17-221.66,124.35-332.48,186.52-.64.8-4.82,6.23-3.41,13.5,1.1,5.66,4.91,8.89,5.99,9.75,3.19.01,8.79-.37,15.07-3.12,6.13-2.69,10.16-6.44,12.31-8.76,6.02,4.99,16.69,12.31,31.11,14.25,22.96,3.09,41.66-9.29,62.09-22.82,9.54-6.32,23-16.44,37-31.73,52.2-19.68,110.35-45.06,171.9-77.99,57.92-30.99,108.53-63.16,151.93-93.82,28.81,6.81,67.73,12.78,113.63,10.73,67.64-3.02,120.8-22.13,153.73-37.12,16.9-9.55,45.33-28.56,69.13-62.25,4.57-6.47,20.84-30.64,31.36-66.97,3.35-11.59,21.28-73.55.77-135.87-4.45-13.54-12.45-32.34-15.1-61.55-1.41-15.57-.79-28.44-.08-36.71,6.05-26.84,17.48-39.44,26.86-45.98,12.95-9.02,24.4-8.19,58.38-20.15,11.93-4.2,21.5-8.16,27.67-10.83h-.01Z"/>
  <path class="st0" d="M728.11,725.64c-2.6,5.59-6.32,13.78-10.54,23.81-10.69,25.45-11.19,30.93-11.32,33.18-.35,6.28.37,19.79,14.05,36.69,2.1.77,6.56,2.09,12.1,1.17,7.26-1.2,11.77-5.47,13.27-7.03,3.01-5.23,6.59-13.12,7.42-23.03,1.04-12.51-3.21-17.52-.78-27.33,1.99-8.03,6.84-12.76,16.01-21.47,7.09-6.73,18.17-15.9,33.96-24.2-24.72,2.73-49.45,5.47-74.17,8.2h0Z"/>
  <path class="st0" d="M781.59,815.04c3.47.98,9.62,2.22,17.18,1.17,7.2-1,12.56-3.66,15.61-5.47,1.46-12.75,5.09-30.32,14.44-49.19,18.68-37.7,48.62-57.23,62.32-64.99-32.13,11.06-64.27,22.11-96.4,33.17-4.29,3.95-10.14,9.95-15.88,18.16-5.98,8.55-11.79,16.86-13.27,26.94-2.88,19.58,12.03,36.06,16.01,40.21h0Z"/>
  <path class="st0" d="M724.44,816.61l17.58-6.24c5.57,16.09,13.05,34.34,23.2,53.74,9.04,17.29,18.51,32.26,27.5,44.96-9.17.68-18.33,1.35-27.5,2.03-3.02-12.37-7.2-26.18-13.06-40.9-8.55-21.48-18.48-39.35-27.72-53.59h0Z"/>
  <path class="st0" d="M781.59,815.04c14.55,9.66,30.54,21.59,46.96,36.23,21.18,18.88,37.97,37.72,51.04,54.42,7.32-2.59,14.65-5.18,21.97-7.77-15.94-12.21-33.3-26.96-51.04-44.62-16.23-16.15-29.99-31.98-41.58-46.65-9.12,2.79-18.24,5.59-27.35,8.38h0Z"/>
  <path class="st0" d="M754.23,907.06c-1.96.99-4.78,2.75-7.27,5.78-5.39,6.58-5.2,14.23-5.07,16.4,1.12-2.57,3.05-6.09,6.37-9.44,1.5-1.52,3-2.72,4.37-3.66,1.49.67,2.99,1.34,4.48,2.01l8.11-7.06s-6.31-2.32-6.33-2.32c-.01,0-4.65-1.71-4.66-1.71h0Z"/>
  <path class="st0" d="M755.23,931.07l1.87-12.91,8.11-7.06,27.5-2.03,6.12,6.69,18.56,4.31,19.72-14.38,12.06,4.04c1.72.23,9.44,1.47,15.08,8.43,6.4,7.91,5.1,17.03,4.87,18.48-.11-.82-.83-5.44-5.1-8.58-4.29-3.16-8.93-2.46-9.74-2.32-.93,1.55-1.86,3.09-2.78,4.64-4.48-.7-8.97-1.39-13.45-2.09-3.57,2-7.94,4.01-13.08,5.57-13.37,4.05-25.17,2.93-32.24,1.62-1.75.39-3.5.77-5.24,1.16l-32.24-5.57h-.02Z"/>
  <path class="st0" d="M879.59,905.69l-.72,4.27c-5.96,1.05-13.93,1.86-23.27,1.11-8.17-.66-15.07-2.32-20.37-4-2.93-1.06-9.84-3.12-18.41-1.37-9.86,2.02-15.9,7.85-17.98,10.07,2.14.5,4.28.99,6.42,1.49,1.9-1.25,5.74-3.4,11.04-3.89,3.89-.36,7.08.31,9.06.9,14.67,5,29.35,10,44.02,14.99l13.19-3.98,2.78,2.78,59.38.23,3.71,2.32,3.02-3.48,5.33,1.16c3.55-1.88,7.98-3.84,13.25-5.33,2.89-.82,5.61-1.38,8.09-1.77,1.78.69,4.2,1.42,7.13,1.77,2.68.31,5,.21,6.79,0,.5-.79,1.22-2.14,1.55-3.96.38-2.07.08-3.78-.16-4.73,1.74.28,4.99,1.07,8.08,3.58,5.69,4.65,6.22,11.47,6.3,12.76.3-1.29,2.05-9.48-3.28-17.14-5.14-7.39-12.99-8.75-14.35-8.96-1.34-.28-3.26-.53-5.56-.32-2.51.23-4.49.93-5.81,1.5-1.64-.95-6.45-3.46-12.96-2.86-6.6.61-10.91,4.03-12.33,5.27-.97-1.38-2.65-3.41-5.29-5.17-3.45-2.29-6.8-2.96-8.63-3.18-2.56,1.14-5.44,2.62-8.47,4.54-3.6,2.28-6.56,4.65-8.93,6.81-2.52-.35-7-1.32-11.71-4.3-4.78-3.03-7.58-6.73-8.97-8.88-7.32,2.59-14.65,5.18-21.97,7.77h.03Z"/>
</svg>